<?xml version="1.0" encoding="UTF-8"?>
<svg version="1.1" xmlns="http://www.w3.org/2000/svg" width="225" height="225">
<path d="M0 0 C74.25 0 148.5 0 225 0 C225 74.25 225 148.5 225 225 C150.75 225 76.5 225 0 225 C0 150.75 0 76.5 0 0 Z " fill="#F05237" transform="translate(0,0)"/>
<path d="M0 0 C10.00535849 6.25334906 16.78611255 15.19162612 19.57647705 26.7093811 C20.32827419 30.77546709 20.32550971 34.824414 20.3359375 38.94921875 C20.3459227 40.35093071 20.3459227 40.35093071 20.35610962 41.78096008 C20.36618632 43.75003101 20.37092819 45.71913574 20.37060547 47.68823242 C20.37496247 50.66188535 20.41129098 53.63403236 20.44921875 56.60742188 C20.54079179 71.99137078 19.25010928 84.30263269 8.22265625 95.86328125 C-0.26778382 103.97173834 -8.89793523 106.71273877 -20.43041992 106.52368164 C-30.35916159 106.0696585 -36.85958963 102.82995774 -44 96 C-42.61811547 92.78956118 -41.07578097 90.95063635 -38.375 88.75 C-37.74335937 88.22921875 -37.11171875 87.7084375 -36.4609375 87.171875 C-35.73777344 86.59179688 -35.73777344 86.59179688 -35 86 C-34.42894531 86.3609375 -33.85789062 86.721875 -33.26953125 87.09375 C-26.1741928 91.15467502 -20.1031195 92.19309735 -12 91 C-4.64533384 88.97670807 -0.93610714 85.32962417 2.77359009 78.8208313 C4.82184031 74.10970799 4.83990951 69.69638249 4.76171875 64.62109375 C4.76508743 63.56898209 4.76845612 62.51687042 4.77192688 61.43287659 C4.77162975 59.22351153 4.7565437 57.0141031 4.72729492 54.80493164 C4.68755591 51.44223136 4.7066432 48.0834705 4.73242188 44.72070312 C4.72486295 42.56248486 4.71390968 40.40427525 4.69921875 38.24609375 C4.70620285 37.25210068 4.71318695 36.2581076 4.72038269 35.23399353 C4.58466601 28.45791259 3.1334789 23.44966219 -1 18 C-7.05144758 12.49656886 -13.07792569 10.51932219 -21.21484375 10.68359375 C-27.84719534 11.43705866 -32.81657343 14.88692308 -37 20 C-41.15590093 25.96814626 -42.1445345 31.83421877 -41 39 C-38.53248368 46.39204888 -34.87897569 51.44565868 -27.92578125 55.0859375 C-23.7105358 56.40284996 -19.58070203 56.46774892 -15.1875 56.625 C-14.30384766 56.66367188 -13.42019531 56.70234375 -12.50976562 56.7421875 C-10.34017028 56.83600784 -8.17011453 56.91907326 -6 57 C-6 61.95 -6 66.9 -6 72 C-21.88140531 72.40376454 -32.63717119 70.84252573 -44.75 59.75 C-53.05121186 51.10129556 -54.46291245 40.99230499 -54.27734375 29.53515625 C-53.8707883 19.68276025 -49.05406991 11.74364719 -41.96484375 5.08984375 C-29.64652968 -5.14282984 -14.51859451 -7.59537583 0 0 Z " fill="#FEFAFA" transform="translate(131,63)"/>
<path d="M0 0 C0.33 0 0.66 0 1 0 C1 34.98 1 69.96 1 106 C-33.98 106 -68.96 106 -105 106 C-105 105.67 -105 105.34 -105 105 C-104.01902344 104.90203125 -103.03804688 104.8040625 -102.02734375 104.703125 C-74.36349811 101.73543563 -52.0004869 91.27160618 -32 72 C-31.34257812 71.40574219 -30.68515625 70.81148438 -30.0078125 70.19921875 C-19.9782288 60.88603389 -13.52854729 48.33531722 -8 36 C-7.25556641 34.33904297 -7.25556641 34.33904297 -6.49609375 32.64453125 C-2.29551097 22.14934384 -1.21811747 11.16784659 0 0 Z " fill="#FEFDFD" transform="translate(224,119)"/>
<path d="M0 0 C34.98 0 69.96 0 106 0 C106 33.99 106 67.98 106 103 C105.67 103 105.34 103 105 103 C104.86464844 101.84886719 104.72929687 100.69773437 104.58984375 99.51171875 C101.59566882 76.48880927 92.82301951 55.21991529 77 38 C76.55285645 37.51047852 76.10571289 37.02095703 75.64501953 36.51660156 C55.70024161 14.92174074 29.10479861 3.35315393 0 1 C0 0.67 0 0.34 0 0 Z " fill="#FEFDFD" transform="translate(119,0)"/>
<path d="M0 0 C0.33 0 0.66 0 1 0 C1.04898438 0.55647217 1.09796875 1.11294434 1.1484375 1.6862793 C4.11760686 32.98094041 17.33239137 59.12973868 41 80 C58.85558163 94.29348327 79.54157698 101.86804305 102 105 C102 105.33 102 105.66 102 106 C68.34 106 34.68 106 0 106 C0 71.02 0 36.04 0 0 Z " fill="#FEFDFD" transform="translate(0,119)"/>
<path d="M0 0 C33 0 66 0 100 0 C100 0.33 100 0.66 100 1 C98.8140625 1.21914063 97.628125 1.43828125 96.40625 1.6640625 C74.45718178 5.88775782 54.67753517 13.67536223 38 29 C37.51047852 29.44714355 37.02095703 29.89428711 36.51660156 30.35498047 C15.39412376 49.86347059 4.69329316 74.83488628 1 103 C0.67 103 0.34 103 0 103 C0 69.01 0 35.02 0 0 Z " fill="#FEFDFD" transform="translate(0,0)"/>
</svg>
